<svg xmlns="http://www.w3.org/2000/svg"><symbol id="shape-arrow-down" viewBox="0 0 12 7.4"><path d="M1.4 0L6 4.6 10.6 0 12 1.4l-6 6-6-6L1.4 0z"/><text transform="translate(84 82.16)" font-family="&apos;MyriadPro-Regular&apos;" font-size="12">&lt;svg width=&quot;18&quot; height=&quot;18&quot;&gt;&lt;use xlink:href=&quot;#person&quot;&gt;&lt;/use&gt;&lt;/svg&gt;</text></symbol><symbol id="shape-arrow-left" viewBox="0 0 7.4 12"><path d="M7.4 1.4L2.8 6l4.6 4.6L6 12 0 6l6-6 1.4 1.4z"/><text transform="translate(81.705 84.455)" font-family="&apos;MyriadPro-Regular&apos;" font-size="12">&lt;svg width=&quot;18&quot; height=&quot;18&quot;&gt;&lt;use xlink:href=&quot;#person&quot;&gt;&lt;/use&gt;&lt;/svg&gt;</text></symbol><symbol id="shape-arrow-right" viewBox="0 0 7.4 12"><path d="M0 10.6L4.6 6 0 1.4 1.4 0l6 6-6 6L0 10.6z"/><text transform="translate(81.705 84.455)" font-family="&apos;MyriadPro-Regular&apos;" font-size="12">&lt;svg width=&quot;18&quot; height=&quot;18&quot;&gt;&lt;use xlink:href=&quot;#person&quot;&gt;&lt;/use&gt;&lt;/svg&gt;</text></symbol><symbol id="shape-arrow-up" viewBox="0 0 12 7.4"><path d="M0 6l6-6 6 6-1.4 1.4L6 2.8 1.4 7.4 0 6z"/><text transform="translate(84 82.16)" font-family="&apos;MyriadPro-Regular&apos;" font-size="12">&lt;svg width=&quot;18&quot; height=&quot;18&quot;&gt;&lt;use xlink:href=&quot;#person&quot;&gt;&lt;/use&gt;&lt;/svg&gt;</text></symbol><symbol id="shape-bottle" viewBox="0 0 11 16.2"><title>pill bottle</title><g><path d="M9.2 3H1.8C1.5 3.6 1 4.3 0 5.1v9.7c0 .9.7 1.5 1.5 1.5h8c.8 0 1.5-.7 1.5-1.5V5.1C10 4.3 9.5 3.6 9.2 3zM.2 0h10.5v2.5H.2z"/></g></symbol><symbol id="shape-cart" viewBox="0 0 20 20"><path d="M6 16c-1.1 0-2 .9-2 2s.9 2 2 2 2-.9 2-2-.9-2-2-2zM0 0v2h2l3.6 7.6L4.2 12c-.1.3-.2.6-.2 1 0 1.1.9 2 2 2h12v-2H6.4c-.1 0-.2-.1-.2-.2v-.1l.9-1.7h7.4c.7 0 1.4-.4 1.7-1l3.6-6.5c.2-.2.2-.3.2-.5 0-.6-.5-1-1-1H4.2l-.9-2H0zm16 16c-1.1 0-2 .9-2 2s.9 2 2 2 2-.9 2-2-.9-2-2-2z"/></symbol><symbol id="shape-cc" viewBox="0 0 20 16"><path d="M18 0H2C.9 0 0 .9 0 2v12c0 1.1.9 2 2 2h16c1.1 0 2-.9 2-2V2c0-1.1-.9-2-2-2zm0 14H2V8h16v6zm0-10H2V2h16v2z"/></symbol><symbol id="shape-check-brand" viewBox="0 0 8 6"><path d="M2.9 4.4L.8 2.3l-.8.8L2.9 6 8 .8 7.2 0z"/></symbol><symbol id="shape-check" viewBox="0 0 8 6"><path d="M2.9 4.4L.8 2.3l-.8.8L2.9 6 8 .8 7.2 0z"/></symbol><symbol id="shape-close" viewBox="0 0 14 14"><path d="M14 1.4L12.6 0 7 5.6 1.4 0 0 1.4 5.6 7 0 12.6 1.4 14 7 8.4l5.6 5.6 1.4-1.4L8.4 7 14 1.4z"/></symbol><symbol id="shape-file" viewBox="0 0 20 24"><title>Shape</title><path d="M13 2v5h5v15H2V2h11zm1-2H0v24h20V6l-6-6z" fill-rule="nonzero"/></symbol><symbol id="shape-filter" viewBox="0 0 15 10"><title>Shape</title><path d="M5.833 10h3.334V8.333H5.833V10zM0 0v1.667h15V0H0zm2.5 5.833h10V4.167h-10v1.666z" fill-rule="nonzero"/></symbol><symbol id="shape-hex-arrow" viewBox="0 0 32 32"><style>.st0{fill:#fff}</style><title>Group</title><path class="st0" d="M27.3 4.7L16 0 4.7 4.7 0 16l4.7 11.3L16 32l11.3-4.7L32 16 27.3 4.7zm-.8 21.8L16 30.9 5.5 26.5 1.1 16 5.5 5.5 16 1.1l10.5 4.4L30.9 16l-4.4 10.5z"/><path class="st0" d="M16 17.9l-5.6-5.2-.8.7 6.4 5.9 6.4-5.9-.8-.7z"/></symbol><symbol id="shape-hex" viewBox="0 0 45 44"><title>hex polygons</title><g><path d="M33 6L22.5 0 12 6v12l10.5 6L33 18zM0 26v12l10.5 6L21 38V26l-10.5-6zM34.5 20L24 26v12l10.5 6L45 38V26z"/></g></symbol><symbol id="shape-home" viewBox="0 0 20 17"><title>ic_home_black_24px</title><path d="M10 0L0 9h3v8h5v-6h4v6h5V9h3z"/></symbol><symbol id="shape-loading" viewBox="0 0 24 24"><style>.st0{fill:#0081b6}</style><path class="st0" d="M13.8 22c0 1-.8 1.8-1.8 1.8s-1.8-.8-1.8-1.8.8-1.8 1.8-1.8 1.8.8 1.8 1.8zM12 0c-1.1 0-2 .9-2 2s.9 2 2 2 2-.9 2-2-.9-2-2-2zm10 10.8c.7 0 1.2.6 1.2 1.2s-.6 1.2-1.2 1.2-1.2-.6-1.2-1.2.5-1.2 1.2-1.2zM0 12c0 1.1.9 2 2 2s2-.9 2-2-.9-2-2-2-2 .9-2 2zm19-8c.6 0 1 .4 1 1s-.4 1-1 1-1-.4-1-1 .4-1 1-1zm0 13.5c.8 0 1.5.7 1.5 1.5s-.7 1.5-1.5 1.5-1.5-.7-1.5-1.5.7-1.5 1.5-1.5zM5 3c1.1 0 2 .9 2 2s-.9 2-2 2-2-.9-2-2 .9-2 2-2zm0 14c1.1 0 2 .9 2 2s-.9 2-2 2-2-.9-2-2 .9-2 2-2z"/></symbol><symbol id="shape-moon" viewBox="0 0 17.4 24"><path d="M8 12c0-7.6 6.4-10.3 9.4-10.8C15.6.5 13.9 0 12 0 5.4 0 0 5.4 0 12s5.4 12 12 12c1.9 0 3.9-.3 5.4-1.2C13.9 22.2 8 19.5 8 12zm-6 0c0-5.1 3.8-9.3 8.7-9.9C8.1 4.1 6 7.3 6 12c0 4.6 1.9 7.8 4.5 9.9C5.7 21.2 2 17 2 12z"/></symbol><symbol id="shape-person-circle" viewBox="0 0 20 20"><path d="M10 .5C4.8.5.5 4.8.5 10s4.3 9.5 9.5 9.5 9.5-4.3 9.5-9.5S15.2.5 10 .5zm0 2.8c1.6 0 2.9 1.2 2.9 2.8s-1.3 3-2.9 3-2.8-1.3-2.8-2.9S8.4 3.3 10 3.3zm0 13.5c-2.4 0-4.5-1.2-5.7-3 0-1.9 3.8-2.9 5.7-2.9s5.7 1 5.7 2.9c-1.2 1.8-3.3 3-5.7 3z"/></symbol><symbol id="shape-person" viewBox="0 0 16 16"><circle cx="8" cy="4" r="4"/><path d="M8 10c-2.7 0-8 1.3-8 4v2h16v-2c0-2.7-5.3-4-8-4z"/></symbol><symbol id="shape-phenylalanine" viewBox="0 0 229 169"><title>Phenylalanine</title><g><path d="M27.5 89L.6 121.1l-.2.2 14.4 39.6 41.6 7.3 26.9-32.1.2-.2-14.4-39.6L27.5 89zM56 167.2l-40.4-7.1-14-38.6L27.9 90l40.4 7.1 14 38.6L56 167.2zM204.5 46.8l-35.6-6.7v-.2L160 15.5c-.1-.3-.4-.4-.6-.3-.3.1-.4.4-.3.6l8.8 24.1-3.7-.7L137.4 71l-40.8-7.3-26.9 32.2c-.2.2-.1.5.1.7.1.1.2.1.3.1.1 0 .3-.1.4-.2L97 64.8l40.4 7.2h.1l1 2.7 7.7 29.9c0 .1.1.1.1.2h.2l6.1-2.2c.1 0 .1-.1.1-.1v-.2l-13.4-28.1-1-2.7 26.2-31.2 39.8 7.4c.3 0 .5-.1.6-.4 0-.2-.1-.4-.4-.5z"/><path d="M61.6 105c-.3.1-.4.4-.3.6l10.8 29.7c.1.2.3.3.5.3h.2c.3-.1.4-.4.3-.6l-10.8-29.7c-.1-.2-.4-.4-.7-.3zM53.3 159l-31.1-5.5c-.3-.1-.5.1-.6.4 0 .3.1.5.4.6l31.1 5.5h.1c.2 0 .4-.2.5-.4 0-.3-.1-.5-.4-.6zM29.6 99.6c-.2-.2-.5-.1-.7.1L8.6 123.9c-.2.2-.1.5.1.7.1.1.2.1.3.1.1 0 .3-.1.4-.2l20.3-24.2c.2-.2.1-.5-.1-.7zM159.5 43.3c.1.2.3.3.5.3h.2c.3-.1.4-.4.3-.6l-8.9-24.4c-.1-.3-.4-.4-.6-.3-.3.1-.4.4-.3.6l8.8 24.4z"/></g></symbol><symbol id="shape-plus" viewBox="0 0 28 32"><title>Group</title><g><path d="M14 0L.1 8v16L14 32l13.9-8V8L14 0zm12.9 23.4L14 30.8 1.1 23.4V8.6L14 1.2l12.9 7.4v14.8z"/><path d="M13.4 7.8v7.6H5.8v1.2h7.6v7.6h1.2v-7.6h7.6v-1.2h-7.6V7.8z"/></g></symbol><symbol id="shape-search" viewBox="0 0 16 16"><path d="M11.4 10.1h-.7l-.3-.2c.9-1 1.4-2.4 1.4-3.9.1-3.3-2.6-6-5.9-6S0 2.7 0 5.9s2.7 5.9 5.9 5.9c1.5 0 2.8-.5 3.9-1.4l.2.3v.7l4.6 4.6 1.4-1.4-4.6-4.5zm-5.5 0c-2.3 0-4.1-1.8-4.1-4.1s1.8-4.1 4.1-4.1S10 3.7 10 6s-1.8 4.1-4.1 4.1z"/></symbol><symbol id="shape-sun" viewBox="0 0 24 24"><path d="M4 12c0-.3 0-.7.1-1H0v2h4.1c-.1-.3-.1-.7-.1-1zM13 4.1V0h-2v4.1c.3-.1.7-.1 1-.1s.7 0 1 .1zM18.3 7.1l2.9-2.9-1.4-1.4-2.9 2.9c.5.4 1 .9 1.4 1.4zM5.7 16.9l-2.9 2.9 1.4 1.4 2.9-2.9c-.5-.4-1-.9-1.4-1.4zM7.1 5.7L4.2 2.8 2.8 4.2l2.9 2.9c.4-.5.9-1 1.4-1.4zM19.9 11c0 .3.1.7.1 1s0 .7-.1 1H24v-2h-4.1zM16.9 18.3l2.9 2.9.7-.7.7-.7-2.9-2.9c-.4.5-.9 1-1.4 1.4zM11 19.9V24h2v-4.1c-.3 0-.7.1-1 .1s-.7 0-1-.1zM12 6c-3.3 0-6 2.7-6 6s2.7 6 6 6 6-2.7 6-6-2.7-6-6-6zm0 10c-2.2 0-4-1.8-4-4s1.8-4 4-4 4 1.8 4 4-1.8 4-4 4z"/></symbol><symbol id="shape-tryptophan" viewBox="0 0 256 210"><title>Tryptophan</title><g><path d="M227.7 191.3l-33.5-9.7-1.7-36.7.2-.2v-.3l31-11c.1 0 .1-.1.1-.1v-.2l-2.7-5.9c0-.1-.1-.1-.2-.1h-.2L192.2 144l-33.3-9.6-1.6-35.2h.1L192 68.3l-19.1-36.9-38.1.1c-.3 0-.5.2-.5.5s.2.5.5.5l37.5-.1 18.5 35.7-33.4 29.8v-.5c0-.3-.2-.5-.5-.5-.2 0-.3.1-.4.3l-36.2-25.8 14.2-39L107.3 0 65.7 7.4l-14.2 39L23.3 54c-.3.1-.4.3-.4.6.1.2.3.4.5.4h.1l28-7.5L78.2 79l.2.2 41.1-7.2 36.9 26.3 1.7 36.4v.4l33.6 9.7 1.5 32.3s-.1 0-.1.1l-18.7 18c-.2.2-.2.5 0 .7.1.1.2.2.4.2.1 0 .2 0 .3-.1l18.2-17.5.2 3.6v.4l3.8 1.1-18.3 17.7c-.2.2-.2.5 0 .7.1.1.2.2.4.2.1 0 .2 0 .3-.1l18.7-18v-.1l29.3 8.5h.1c.2 0 .4-.1.5-.4-.1-.4-.3-.7-.6-.8zM52.5 46.8l14-38.6L106.9 1l26.3 31.5-14 38.6-40.4 7.1-26.3-31.4z"/><path d="M123.1 34.2c-.3-.1-.5 0-.6.3l-10.8 29.7c-.1.3 0 .5.3.6h.2c.2 0 .4-.1.5-.3l10.8-29.7c0-.2-.2-.5-.4-.6zM61.7 46c-.2-.2-.5-.2-.7-.1-.2.2-.2.5-.1.7l20.3 24.2c.1.1.2.2.4.2.1 0 .2 0 .3-.1.2-.2.2-.5.1-.7L61.7 46zM101.4 9.1l-31.1 5.5c-.3 0-.5.3-.4.6 0 .2.3.4.5.4h.1l31.1-5.5c.3 0 .5-.3.4-.6-.1-.3-.3-.4-.6-.4z"/></g></symbol><symbol id="shape-tyrosine" viewBox="0 0 286 131"><title>Tyrosine</title><g><path d="M46 63.5v41.6l-23.8 16.7c-.2.2-.3.5-.1.7.1.1.2.2.4.2.1 0 .2-.1.3-.1l23.8-16.7 36 20.8 36.2-20.9.2-.1V63.5L82.5 42.4 46 63.5zm72 .5v41.1l-35.5 20.5L47 105.1V64l35.6-20.5L118 64zM263.3 63.2l-31.2-18.5V18.6c0-.3-.2-.5-.5-.5s-.5.2-.5.5v25.5l-2.8-1.7-.3-.1-35.9 20.8-36-20.8-36.3 21c-.3.2-.4.4-.2.7.2.3.5.3.7.2l35.8-20.7 35.4 20.4v.1c.1.1.1.1.2.1v1.1l-3.1 32.5c0 .1.1.1.1.2.1.1.1.1.2.1h6.5c.1 0 .2 0-.1-.1 0-.1.1-.1.1-.1v-.1l-2.7-28.3v-5.5L228 43.5l34.8 20.6c.3.1.6 0 .7-.2.1-.3 0-.6-.2-.7z"/><path d="M109.1 101.7c.3 0 .5-.2.5-.5V69.6c0-.3-.2-.5-.5-.5s-.5.2-.5.5v31.6c0 .3.2.5.5.5zM54.8 101.3c-.1.3 0 .6.2.7l27.4 15.8c0 .1.1.1.2.1s.3-.1.4-.2c.1-.3 0-.6-.2-.7l-27.3-15.9c-.3-.1-.6-.1-.7.2zM53.1 69.6h.2l27.5-15.8c.3-.2.4-.4.2-.7-.2-.3-.5-.3-.7-.2L52.9 68.7c-.3.2-.3.5-.2.7.1.1.2.2.4.2zM222.7 45.1c.3 0 .5-.2.5-.5v-26c0-.3-.2-.5-.5-.5s-.5.2-.5.5v26c0 .3.2.5.5.5z"/></g></symbol><symbol id="shape-video" viewBox="0 0 24 24"><title>Shape</title><path d="M9 16.985V6.964l9 5.157-9 4.864zm4-14.98c5.046.504 9 4.782 9 9.97a9.957 9.957 0 0 1-.892 4.113l1.738 1.006A11.98 11.98 0 0 0 24 11.975C24 5.672 19.158.511 13 0v2.005zM2.891 16.087A9.955 9.955 0 0 1 2 11.975c0-5.188 3.954-9.466 9-9.97V0C4.842.511 0 5.672 0 11.975c0 1.833.421 3.563 1.153 5.118l1.738-1.006zm17.213 1.734c-1.817 2.523-4.769 4.175-8.104 4.175-3.335 0-6.288-1.651-8.105-4.176l-1.746 1.011C4.316 21.953 7.917 24 12 24c4.082 0 7.683-2.047 9.851-5.168l-1.747-1.011z" fill-rule="nonzero"/></symbol></svg>