<?xml version="1.0" encoding="utf-8"?>
<!-- Generator: Adobe Illustrator 26.5.0, SVG Export Plug-In . SVG Version: 6.00 Build 0)  -->
<svg version="1.1" id="Layer_1" xmlns="http://www.w3.org/2000/svg" xmlns:xlink="http://www.w3.org/1999/xlink" x="0px" y="0px"
	 viewBox="0 0 220 220" style="enable-background:new 0 0 220 220;" xml:space="preserve">
<style type="text/css">
	.st0{fill:#0182B4;}
</style>
<g id="Design">
	<g id="Artboard">
		<g id="Group-4" transform="translate(10.000000, 27.000000)">
			<path id="Shape" class="st0" d="M191.4,56.6h-43.6c-6.4,0-11,0.7-11,5.8c0,6.7,9.5,6.5,15.7,7.7c14.8,3,26.2,9.8,26.2,24.4
				c0,20.2-18,23.8-34,23.8H84.5V68c0-7.8-3.6-12.7-11.8-12.7c-4.3,0.1-8.6,0.9-12.6,2.5v35.7c0,14.8-9.2,24.7-21.7,24.7H25.5
				c30.9,66.3,59.3,48.9,113.1,34C218.3,130.1,201.2,88.2,191.4,56.6z"/>
			<path id="Shape_00000144322001141975452440000003683201463607070627_" class="st0" d="M37.9,94.1V46.7c10.6-5.2,22.3-8,34.1-8
				c20.6,0,29.4,10.6,29.4,27.2v36.3H140c7.2,0,13.9-1.6,13.9-7.4c0-7.2-7.7-7.4-13.3-8.3c-10.1-1.5-28.5-5-28.5-24
				c0-16.6,13.8-23.7,31.7-23.7H183C176.7,23.3,163.4,15.7,96.3,5C12.7-8.4-22.8-0.3,15.2,100l0.7,1.9h10.7
				C34.1,101.9,37.9,99.8,37.9,94.1z"/>
		</g>
	</g>
</g>
</svg>
