<svg version="1.1" id="cysteine" width="129px" height="85px" xmlns="http://www.w3.org/2000/svg" xmlns:xlink="http://www.w3.org/1999/xlink" x="0px" y="0px"
	 viewBox="0 0 129.2 85.3" enable-background="new 0 0 129.2 85.3" xml:space="preserve">
<polyline opacity="0.3" fill="none" stroke="#FFFFFF" stroke-miterlimit="10" points="18.3,44.6 37.7,33.3 64.2,48.4 91.2,33.3
	111.3,44.3 "/>
<line opacity="0.3" fill="none" stroke="#FFFFFF" stroke-miterlimit="10" x1="93.7" y1="11.9" x2="93.7" y2="34.7"/>
<line opacity="0.3" fill="none" stroke="#FFFFFF" stroke-miterlimit="10" x1="89.1" y1="11.9" x2="89.1" y2="34.5"/>
<g opacity="0.3">
	<path fill="#FFFFFF" d="M121,46.8c0,0.3-0.1,0.6-0.2,0.9c-0.1,0.3-0.2,0.6-0.3,0.9s-0.3,0.5-0.6,0.7c-0.3,0.3-0.7,0.5-1.1,0.7
		c-0.4,0.2-0.8,0.2-1.3,0.2c-0.4,0-0.9-0.1-1.3-0.2s-0.8-0.4-1.1-0.7c-0.2-0.2-0.4-0.5-0.6-0.7s-0.3-0.6-0.3-0.9
		c-0.1-0.3-0.1-0.6-0.2-0.9c0-0.3,0-0.7,0-1c0-0.3,0-0.7,0-1c0-0.3,0.1-0.6,0.2-0.9c0.1-0.3,0.2-0.6,0.3-0.9s0.3-0.5,0.6-0.7
		c0.3-0.3,0.7-0.5,1.1-0.7c0.4-0.2,0.8-0.2,1.3-0.2c0.4,0,0.9,0.1,1.3,0.2c0.4,0.2,0.8,0.4,1.1,0.7c0.2,0.2,0.4,0.5,0.6,0.7
		s0.3,0.6,0.3,0.9c0.1,0.3,0.1,0.6,0.2,0.9c0,0.3,0,0.7,0,1C121,46.1,121,46.4,121,46.8z M119.9,45.1c0-0.3,0-0.5-0.1-0.7
		c0-0.2-0.1-0.5-0.2-0.7c-0.1-0.2-0.2-0.4-0.4-0.6c-0.2-0.2-0.5-0.4-0.7-0.5s-0.6-0.2-0.8-0.2s-0.6,0.1-0.8,0.2
		c-0.3,0.1-0.5,0.3-0.7,0.5c-0.2,0.2-0.3,0.4-0.4,0.6c-0.1,0.2-0.2,0.5-0.2,0.7c0,0.2-0.1,0.5-0.1,0.7c0,0.3,0,0.5,0,0.7
		c0,0.2,0,0.5,0,0.7c0,0.3,0,0.5,0.1,0.7c0,0.2,0.1,0.5,0.2,0.7c0.1,0.2,0.2,0.4,0.4,0.6c0.2,0.2,0.5,0.4,0.7,0.5
		c0.3,0.1,0.6,0.2,0.8,0.2s0.6-0.1,0.8-0.2s0.5-0.3,0.7-0.5c0.2-0.2,0.3-0.4,0.4-0.6c0.1-0.2,0.2-0.5,0.2-0.7c0-0.2,0.1-0.5,0.1-0.7
		c0-0.3,0-0.5,0-0.7C119.9,45.5,119.9,45.3,119.9,45.1z"/>
	<path fill="#FFFFFF" d="M128.1,46.1h-4.1v4h-1.1v-8.6h1.1v3.6h4.1v-3.6h1.1v8.6h-1.1V46.1z"/>
</g>
<g opacity="0.3">
	<path fill="#FFFFFF" d="M58.4,76.1v6.8h-1v-8.5h1.2l4.2,6.9v-6.9h1v8.5h-1.2L58.4,76.1z"/>
	<path fill="#FFFFFF" d="M71.3,79h-4.1v3.9h-1.1v-8.5h1.1V78h4.1v-3.5h1.1v8.5h-1.1V79z"/>
</g>
<g opacity="0.3">
	<path fill="#FFFFFF" d="M73.9,84.6l2.7-3.3c0.2-0.3,0.4-0.6,0.4-0.9c0-0.3-0.1-0.6-0.3-0.8c-0.2-0.2-0.5-0.3-0.8-0.3
		c-0.1,0-0.3,0-0.4,0.1c-0.1,0-0.3,0.1-0.4,0.2c-0.1,0.1-0.2,0.2-0.2,0.4c-0.1,0.2-0.1,0.3-0.1,0.6h-0.8c0-0.3,0-0.5,0.1-0.8
		c0.1-0.2,0.2-0.4,0.4-0.6c0.2-0.2,0.4-0.3,0.6-0.4s0.5-0.1,0.8-0.1c0.4,0,0.7,0.1,1,0.2s0.5,0.3,0.7,0.6c0.1,0.1,0.2,0.3,0.2,0.5
		c0.1,0.2,0.1,0.4,0.1,0.6c0,0.3,0,0.5-0.1,0.7c-0.1,0.2-0.2,0.4-0.4,0.7L75,84.5h2.9v0.8h-4V84.6z"/>
</g>
<g opacity="0.3">
	<path fill="#FFFFFF" d="M94.4,4.8c0,0.3-0.1,0.6-0.1,0.8c-0.1,0.3-0.2,0.5-0.3,0.7c-0.1,0.2-0.3,0.5-0.5,0.7
		c-0.3,0.3-0.6,0.5-0.9,0.6c-0.4,0.1-0.7,0.2-1.1,0.2c-0.4,0-0.8-0.1-1.1-0.2C90,7.5,89.7,7.3,89.4,7c-0.2-0.2-0.4-0.4-0.5-0.7
		c-0.1-0.2-0.2-0.5-0.3-0.7c-0.1-0.3-0.1-0.5-0.1-0.8c0-0.3,0-0.6,0-0.9c0-0.3,0-0.6,0-0.9c0-0.3,0.1-0.6,0.1-0.8
		c0.1-0.3,0.2-0.5,0.3-0.8s0.3-0.5,0.5-0.7c0.3-0.3,0.6-0.5,0.9-0.6C90.7,0.1,91.1,0,91.4,0c0.4,0,0.7,0.1,1.1,0.2
		c0.4,0.1,0.7,0.3,0.9,0.6C93.7,1,93.8,1.2,94,1.5c0.1,0.2,0.2,0.5,0.3,0.8c0.1,0.3,0.1,0.5,0.1,0.8c0,0.3,0,0.6,0,0.9
		C94.4,4.2,94.4,4.5,94.4,4.8z M93.4,3.3c0-0.2,0-0.4-0.1-0.7c0-0.2-0.1-0.4-0.2-0.6c-0.1-0.2-0.2-0.4-0.4-0.5
		c-0.2-0.2-0.4-0.3-0.6-0.4c-0.2-0.1-0.5-0.1-0.7-0.1c-0.3,0-0.5,0-0.7,0.1c-0.2,0.1-0.4,0.2-0.6,0.4c-0.2,0.2-0.3,0.3-0.4,0.5
		c-0.1,0.2-0.1,0.4-0.2,0.6c0,0.2-0.1,0.4-0.1,0.7c0,0.2,0,0.4,0,0.6c0,0.2,0,0.4,0,0.6c0,0.2,0,0.4,0.1,0.7c0,0.2,0.1,0.4,0.2,0.6
		c0.1,0.2,0.2,0.4,0.4,0.5c0.2,0.2,0.4,0.3,0.6,0.4c0.2,0.1,0.5,0.1,0.7,0.1c0.3,0,0.5,0,0.7-0.1c0.2-0.1,0.4-0.2,0.6-0.4
		C93,6.2,93.1,6,93.2,5.8c0.1-0.2,0.1-0.4,0.2-0.6c0-0.2,0.1-0.4,0.1-0.7c0-0.2,0-0.4,0-0.6C93.5,3.7,93.5,3.5,93.4,3.3z"/>
</g>
<g opacity="0.3">
	<path fill="#FFFFFF" d="M5.3,45.6H1.1v4.2H0v-9.2h1.1v3.8h4.2v-3.8h1.1v9.2H5.3V45.6z"/>
	<path fill="#FFFFFF" d="M14.8,48.3c-0.1,0.3-0.3,0.5-0.5,0.8c-0.3,0.3-0.7,0.5-1.1,0.7c-0.4,0.2-0.9,0.2-1.4,0.2
		c-1.1,0-1.9-0.3-2.5-0.9c-0.3-0.3-0.5-0.6-0.7-1c-0.2-0.4-0.3-0.8-0.3-1.2h1.2c0,0.3,0.1,0.5,0.2,0.8c0.1,0.3,0.3,0.5,0.4,0.7
		c0.2,0.2,0.5,0.3,0.8,0.4c0.3,0.1,0.6,0.1,0.9,0.1c0.3,0,0.7,0,0.9-0.1c0.3-0.1,0.5-0.2,0.7-0.4c0.1-0.1,0.3-0.3,0.3-0.4
		c0.1-0.2,0.1-0.4,0.1-0.6c0-0.4-0.1-0.7-0.3-0.9c-0.2-0.3-0.6-0.4-1.1-0.5c-0.2,0-0.5-0.1-0.7-0.1c-0.2,0-0.5-0.1-0.7-0.1
		c-0.3-0.1-0.6-0.1-0.9-0.3c-0.3-0.1-0.5-0.3-0.7-0.5c-0.2-0.2-0.4-0.4-0.5-0.7c-0.1-0.3-0.2-0.6-0.2-1c0-0.3,0.1-0.7,0.2-1
		c0.1-0.3,0.3-0.6,0.6-0.8c0.6-0.6,1.4-0.9,2.3-0.9c0.4,0,0.8,0.1,1.3,0.2c0.4,0.1,0.7,0.4,1,0.7c0.5,0.5,0.8,1.2,0.8,2h-1.2
		c0-0.2-0.1-0.4-0.1-0.6c-0.1-0.2-0.2-0.4-0.3-0.5c-0.2-0.2-0.4-0.4-0.6-0.5c-0.3-0.1-0.6-0.2-0.9-0.2c-0.3,0-0.6,0-0.9,0.1
		c-0.3,0.1-0.5,0.3-0.7,0.5c-0.1,0.1-0.2,0.3-0.3,0.4c-0.1,0.2-0.1,0.3-0.1,0.5s0,0.4,0.1,0.5c0.1,0.2,0.2,0.3,0.3,0.4
		c0.1,0.1,0.3,0.2,0.4,0.2c0.2,0.1,0.3,0.1,0.5,0.1c0.2,0,0.5,0.1,0.7,0.1c0.2,0,0.5,0.1,0.7,0.1c0.7,0.1,1.3,0.4,1.8,0.8
		c0.4,0.4,0.7,1,0.7,1.8C15,47.7,14.9,48,14.8,48.3z"/>
</g>
<polygon opacity="0.3" fill="#FFFFFF" points="61.8,71.7 67.8,71.7 64.2,48.4 "/>
</svg>
