<?xml version="1.0" encoding="utf-8"?>
<!-- Generator: Adobe Illustrator 21.0.2, SVG Export Plug-In . SVG Version: 6.00 Build 0)  -->
<svg version="1.1" id="tryptophanS" xmlns="http://www.w3.org/2000/svg" xmlns:xlink="http://www.w3.org/1999/xlink" x="0px" y="0px"
	 viewBox="0 0 256 210" style="enable-background:new 0 0 256 210;" xml:space="preserve">
<style type="text/css">
	.st0{fill:none;stroke:#FFFFFF;stroke-linecap:round;}
	.st1{fill:#FFFFFF;}
	.st2{font-family:'Akkurat';}
	.st3{font-size:12px;}
	.st4{fill:#FFFFFF;stroke:#FFFFFF;stroke-width:0.5;stroke-linecap:round;stroke-linejoin:round;}
	.st5{font-size:10px;}
</style>
<rect x="-105" y="-89" width="679" height="422"/>
<title>Tryptophan</title>
<polygon class="st0" points="119.6,71.5 133.8,32.4 107.1,0.5 66.1,7.8 51.9,46.9 78.6,78.7 "/>
<polyline class="st0" points="134.8,32 172.6,31.9 191.4,68.2 157.4,98.5 119.6,71.5 "/>
<polyline class="st0" points="192.3,144.5 158.5,134.7 156.8,97.4 "/>
<polyline class="st0" points="192.1,144.6 193.8,182 227.6,191.8 "/>
<text transform="matrix(0.9397 0.342 -0.342 0.9397 164.1888 207.9661)" class="st1 st2 st3">O</text>
<text transform="matrix(0.9397 0.342 -0.342 0.9397 231.7865 196.7708)" class="st1 st2 st3">OH</text>
<text transform="matrix(0.9107 0.413 -0.413 0.9107 164.2002 31.1536)" class="st1 st2 st3">HN</text>
<path class="st0" d="M122.9,34.7l-10.8,29.7"/>
<path class="st0" d="M81.6,70.5L61.3,46.3"/>
<path class="st0" d="M101.5,9.6l-31.1,5.5"/>
<path class="st0" d="M197.8,183.5l-18.7,18"/>
<path class="st0" d="M193.3,177.6l-18.7,18"/>
<polygon class="st4" points="192,144.4 223.7,133.2 221,127.3 "/>
<text transform="matrix(0.9397 0.342 -0.342 0.9397 231.8043 126.3926)" class="st1 st2 st3">NH</text>
<text transform="matrix(0.9397 0.342 -0.342 0.9397 248.66 135.8157)" class="st1 st2 st5">2</text>
<path class="st0" d="M181.5,66.7l-23.4,21.3"/>
</svg>
