<?xml version="1.0" encoding="utf-8"?>
<!-- Generator: Adobe Illustrator 21.0.2, SVG Export Plug-In . SVG Version: 6.00 Build 0)  -->
<svg version="1.1" id="Layer_1" xmlns="http://www.w3.org/2000/svg" xmlns:xlink="http://www.w3.org/1999/xlink" x="0px" y="0px"
	 viewBox="0 0 24 24" style="enable-background:new 0 0 24 24;" xml:space="preserve">
<style type="text/css">
	.st0{fill:#0081B6;}
</style>
<path class="st0" d="M13.8,22c0,1-0.8,1.8-1.8,1.8S10.2,23,10.2,22s0.8-1.8,1.8-1.8S13.8,21,13.8,22z M12,0c-1.1,0-2,0.9-2,2
	c0,1.1,0.9,2,2,2l0,0c1.1,0,2-0.9,2-2C14,0.9,13.1,0,12,0z M22,10.8c0.7,0,1.2,0.6,1.2,1.2s-0.6,1.2-1.2,1.2s-1.2-0.6-1.2-1.2
	S21.3,10.8,22,10.8L22,10.8z M0,12c0,1.1,0.9,2,2,2s2-0.9,2-2s-0.9-2-2-2S0,10.9,0,12z M19,4c0.6,0,1,0.4,1,1c0,0.6-0.4,1-1,1
	s-1-0.4-1-1C18,4.4,18.4,4,19,4z M19,17.5c0.8,0,1.5,0.7,1.5,1.5s-0.7,1.5-1.5,1.5s-1.5-0.7-1.5-1.5S18.2,17.5,19,17.5z M5,3
	c1.1,0,2,0.9,2,2S6.1,7,5,7S3,6.1,3,5S3.9,3,5,3z M5,17c1.1,0,2,0.9,2,2s-0.9,2-2,2l0,0c-1.1,0-2-0.9-2-2S3.9,17,5,17z"/>
</svg>
