<?xml version="1.0" encoding="utf-8"?>
<!-- Generator: Adobe Illustrator 21.0.2, SVG Export Plug-In . SVG Version: 6.00 Build 0)  -->
<svg version="1.1" id="Layer_1" xmlns="http://www.w3.org/2000/svg" xmlns:xlink="http://www.w3.org/1999/xlink" x="0px" y="0px"
	 viewBox="0 0 17.4 24" enable-background="new 0 0 17.4 24" xml:space="preserve">
<path fill="#8C00B6" d="M8,12c0-7.6,6.4-10.3,9.4-10.8C15.6,0.5,13.9,0,12,0C5.4,0,0,5.4,0,12s5.4,12,12,12c1.9,0,3.9-0.3,5.4-1.2
	C13.9,22.2,8,19.5,8,12z M2,12c0-5.1,3.8-9.3,8.7-9.9C8.1,4.1,6,7.3,6,12c0,4.6,1.9,7.8,4.5,9.9C5.7,21.2,2,17,2,12z"/>
</svg>
